<?xml version="1.0" encoding="utf-8"?>
<!-- Generator: Adobe Illustrator 19.1.0, SVG Export Plug-In . SVG Version: 6.00 Build 0)  -->
<svg version="1.1" xmlns="http://www.w3.org/2000/svg" xmlns:xlink="http://www.w3.org/1999/xlink" x="0px" y="0px"
	 viewBox="0 0 643.4 163.1" style="enable-background:new 0 0 643.4 163.1;" xml:space="preserve">
<style type="text/css">
	.st0{fill-rule:evenodd;clip-rule:evenodd;fill:#64A70B;}
	.st1{fill-rule:evenodd;clip-rule:evenodd;fill:#1D4F91;}
	.st2{fill:#1D4F91;}
	.st3{display:none;}
	.st4{display:inline;}
	.st5{fill-rule:evenodd;clip-rule:evenodd;}
</style>
<g id="Layer_1">
	<g>
		<g>
			<polygon class="st0" points="41.8,102.5 20.9,123.4 20.9,81.6 0,102.5 0,60.8 			"/>
			<polygon class="st0" points="20.9,39.9 20.9,81.6 41.8,60.8 41.8,102.5 62.6,81.6 			"/>
			<polygon class="st1" points="83.5,60.8 83.5,102.5 62.6,81.6 62.6,123.4 41.8,102.5 41.8,163.1 123.2,81.6 41.8,0 41.8,60.8 
				62.6,39.9 62.6,81.6 			"/>
		</g>
		<g>
			<path class="st2" d="M153.1,116.7V46.4h36.6c10.7,0,18,3,23,8.4c4,4.4,6.2,10.6,6.2,16.4c0,6.6-2.8,13.3-7.2,17.6
				c-4.8,4.5-11.5,7.4-21.9,7.4h-19.9v20.5H153.1z M169.8,60.5v21.5h20.5c2.9,0,6.2-0.5,8.8-2.9c1.9-1.9,3-5.2,3-7.8
				c0-2.7-1-5.8-2.8-7.7c-2.6-2.7-6-3.2-9-3.2H169.8z"/>
			<path class="st2" d="M276,88.6h-28.1v13.7h42.8v14.3h-59.4V46.4h59.4v14.5h-42.8v13.4H276V88.6z"/>
			<polygon class="st2" points="359,46.4 359,87.9 320.1,46.4 305.7,46.4 305.7,116.7 322.5,116.7 322.5,75.5 322.6,75.5 
				361.3,116.7 375.8,116.7 375.8,46.4 			"/>
			<path class="st2" d="M387.4,46.4h75.3L456,60.9h-24.3v55.8H415V60.9h-27.6V46.4z"/>
			<path class="st2" d="M499,46.4h-14.3L452,116.7h17.6l4.3-10.2l35.1,0l3.7,10.2h18.3L499,46.4z M479.5,93.3L491,66.4h0.7
				l11.5,26.9H479.5z"/>
			<path class="st2" d="M542.4,116.7V46.4h16.7v70.2H542.4z"/>
			<path class="st2" d="M577.7,116.7V46.4h36.6c10.8,0,17.9,3.2,22.8,8.3c4,4.2,6.3,10.5,6.3,16.5c0,9.8-6.1,18.2-15.4,22.3
				l14.6,23.2h-19.1l-12.2-20.5h-17v20.5H577.7z M594.3,60.5v21.5H616c5.8,0,10.6-5,10.6-10.8c0-2.6-0.9-5.7-2.7-7.5
				c-2.7-2.9-6.1-3.3-9.1-3.3H594.3z"/>
		</g>
	</g>
</g>
<g id="Layer_2" class="st3">
	<g class="st4">
		<g>
			<polygon class="st5" points="41.8,102.5 20.9,123.4 20.9,81.6 0,102.5 0,60.8 			"/>
			<polygon class="st5" points="20.9,39.9 20.9,81.6 41.8,60.8 41.8,102.5 62.6,81.6 			"/>
			<polygon class="st5" points="83.5,60.8 83.5,102.5 62.6,81.6 62.6,123.4 41.8,102.5 41.8,163.1 123.2,81.6 41.8,0 41.8,60.8 
				62.6,39.9 62.6,81.6 			"/>
		</g>
		<g>
			<path d="M153.1,116.7V46.4h36.6c10.7,0,18,3,23,8.4c4,4.4,6.2,10.6,6.2,16.4c0,6.6-2.8,13.3-7.2,17.6c-4.8,4.5-11.5,7.4-21.9,7.4
				h-19.9v20.5H153.1z M169.8,60.5v21.5h20.5c2.9,0,6.2-0.5,8.8-2.9c1.9-1.9,3-5.2,3-7.8c0-2.7-1-5.8-2.8-7.7c-2.6-2.7-6-3.2-9-3.2
				H169.8z"/>
			<path d="M276,88.6h-28.1v13.7h42.8v14.3h-59.4V46.4h59.4v14.5h-42.8v13.4H276V88.6z"/>
			<polygon points="359,46.4 359,87.9 320.1,46.4 305.7,46.4 305.7,116.7 322.5,116.7 322.5,75.5 322.6,75.5 361.3,116.7 
				375.8,116.7 375.8,46.4 			"/>
			<path d="M387.4,46.4h75.3L456,60.9h-24.3v55.8H415V60.9h-27.6V46.4z"/>
			<path d="M499,46.4h-14.3L452,116.7h17.6l4.3-10.2l35.1,0l3.7,10.2h18.3L499,46.4z M479.5,93.3L491,66.4h0.7l11.5,26.9H479.5z"/>
			<path d="M542.4,116.7V46.4h16.7v70.2H542.4z"/>
			<path d="M577.7,116.7V46.4h36.6c10.8,0,17.9,3.2,22.8,8.3c4,4.2,6.3,10.5,6.3,16.5c0,9.8-6.1,18.2-15.4,22.3l14.6,23.2h-19.1
				l-12.2-20.5h-17v20.5H577.7z M594.3,60.5v21.5H616c5.8,0,10.6-5,10.6-10.8c0-2.6-0.9-5.7-2.7-7.5c-2.7-2.9-6.1-3.3-9.1-3.3H594.3
				z"/>
		</g>
	</g>
</g>
</svg>
